TITLE ""
FILE "Disc3Track68.mp3" MP3
  TRACK 01 AUDIO
    TITLE "Disc3Track68_01"
    INDEX 01 00:00:00
  TRACK 02 AUDIO
    TITLE "Disc3Track68_02"
    INDEX 01 00:01:14
  TRACK 03 AUDIO
    TITLE "Disc3Track68_03"
    INDEX 01 00:03:54
  TRACK 04 AUDIO
    TITLE "Disc3Track68_04"
    INDEX 01 00:05:02
  TRACK 05 AUDIO
    TITLE "Disc3Track68_05"
    INDEX 01 00:10:15
  TRACK 06 AUDIO
    TITLE "Disc3Track68_06"
    INDEX 01 00:10:46
  TRACK 07 AUDIO
    TITLE "Disc3Track68_07"
    INDEX 01 00:12:15
  TRACK 08 AUDIO
    TITLE "Disc3Track68_08"
    INDEX 01 00:13:25
  TRACK 09 AUDIO
    TITLE "Disc3Track68_09"
    INDEX 01 00:14:69
  TRACK 10 AUDIO
    TITLE "Disc3Track68_10"
    INDEX 01 00:15:35
  TRACK 11 AUDIO
    TITLE "Disc3Track68_11"
    INDEX 01 00:16:45
  TRACK 12 AUDIO
    TITLE "Disc3Track68_12"
    INDEX 01 00:17:62
  TRACK 13 AUDIO
    TITLE "Disc3Track68_13"
    INDEX 01 00:18:71
  TRACK 14 AUDIO
    TITLE "Disc3Track68_14"
    INDEX 01 00:24:60
  TRACK 15 AUDIO
    TITLE "Disc3Track68_15"
    INDEX 01 00:25:16
  TRACK 16 AUDIO
    TITLE "Disc3Track68_16"
    INDEX 01 00:26:37
  TRACK 17 AUDIO
    TITLE "Disc3Track68_17"
    INDEX 01 00:28:67
  TRACK 18 AUDIO
    TITLE "Disc3Track68_18"
    INDEX 01 00:30:13
  TRACK 19 AUDIO
    TITLE "Disc3Track68_19"
    INDEX 01 00:33:63
  TRACK 20 AUDIO
    TITLE "Disc3Track68_20"
    INDEX 01 00:34:19
  TRACK 21 AUDIO
    TITLE "Disc3Track68_21"
    INDEX 01 00:35:48
  TRACK 22 AUDIO
    TITLE "Disc3Track68_22"
    INDEX 01 00:37:37
  TRACK 23 AUDIO
    TITLE "Disc3Track68_23"
    INDEX 01 00:38:66
  TRACK 24 AUDIO
    TITLE "Disc3Track68_24"
    INDEX 01 00:43:16
  TRACK 25 AUDIO
    TITLE "Disc3Track68_25"
    INDEX 01 00:43:47
  TRACK 26 AUDIO
    TITLE "Disc3Track68_26"
    INDEX 01 00:44:72
  TRACK 27 AUDIO
    TITLE "Disc3Track68_27"
    INDEX 01 00:46:30
  TRACK 28 AUDIO
    TITLE "Disc3Track68_28"
    INDEX 01 00:47:57
  TRACK 29 AUDIO
    TITLE "Disc3Track68_29"
    INDEX 01 00:48:15
  TRACK 30 AUDIO
    TITLE "Disc3Track68_30"
    INDEX 01 00:49:24
  TRACK 31 AUDIO
    TITLE "Disc3Track68_31"
    INDEX 01 00:50:40
  TRACK 32 AUDIO
    TITLE "Disc3Track68_32"
    INDEX 01 00:51:49
  TRACK 33 AUDIO
    TITLE "Disc3Track68_33"
    INDEX 01 00:53:73
  TRACK 34 AUDIO
    TITLE "Disc3Track68_34"
    INDEX 01 00:54:31
  TRACK 35 AUDIO
    TITLE "Disc3Track68_35"
    INDEX 01 00:55:49
  TRACK 36 AUDIO
    TITLE "Disc3Track68_36"
    INDEX 01 00:56:64
  TRACK 37 AUDIO
    TITLE "Disc3Track68_37"
    INDEX 01 00:58:06
  TRACK 38 AUDIO
    TITLE "Disc3Track68_38"
    INDEX 01 01:03:32
  TRACK 39 AUDIO
    TITLE "Disc3Track68_39"
    INDEX 01 01:03:66
  TRACK 40 AUDIO
    TITLE "Disc3Track68_40"
    INDEX 01 01:05:04
  TRACK 41 AUDIO
    TITLE "Disc3Track68_41"
    INDEX 01 01:05:69
  TRACK 42 AUDIO
    TITLE "Disc3Track68_42"
    INDEX 01 01:07:05
  TRACK 43 AUDIO
    TITLE "Disc3Track68_43"
    INDEX 01 01:11:24
  TRACK 44 AUDIO
    TITLE "Disc3Track68_44"
    INDEX 01 01:11:55
  TRACK 45 AUDIO
    TITLE "Disc3Track68_45"
    INDEX 01 01:13:05
  TRACK 46 AUDIO
    TITLE "Disc3Track68_46"
    INDEX 01 01:14:34
  TRACK 47 AUDIO
    TITLE "Disc3Track68_47"
    INDEX 01 01:15:59
  TRACK 48 AUDIO
    TITLE "Disc3Track68_48"
    INDEX 01 01:20:50
  TRACK 49 AUDIO
    TITLE "Disc3Track68_49"
    INDEX 01 01:21:11
  TRACK 50 AUDIO
    TITLE "Disc3Track68_50"
    INDEX 01 01:22:22
  TRACK 51 AUDIO
    TITLE "Disc3Track68_51"
    INDEX 01 01:26:51
  TRACK 52 AUDIO
    TITLE "Disc3Track68_52"
    INDEX 01 01:27:62
  TRACK 53 AUDIO
    TITLE "Disc3Track68_53"
    INDEX 01 01:29:47
